<svg width="50" height="50" viewBox="0 0 50 50" fill="none" xmlns="http://www.w3.org/2000/svg">
<g>
  <path d="M26.9531 25C26.9531 26.0788 26.0788 26.9531 25 26.9531H14.0625C12.9837 26.9531 12.1094 26.0788 12.1094 25C12.1094 23.9212 12.9837 23.0469 14.0625 23.0469H23.0469V9.375C23.0469 8.2962 23.9212 7.42188 25 7.42188C26.0788 7.42188 26.9531 8.2962 26.9531 9.375V25ZM50 38.6719V44.6289C50 47.5903 47.5903 50 44.6289 50C41.6672 50 39.2578 47.5903 39.2578 44.6289V38.6719C39.2578 35.7101 41.6672 33.3008 44.6289 33.3008C47.5903 33.3008 50 35.7101 50 38.6719ZM46.0938 38.6719C46.0938 37.8639 45.4365 37.207 44.6289 37.207C43.821 37.207 43.1641 37.8639 43.1641 38.6719V44.6289C43.1641 45.4365 43.821 46.0938 44.6289 46.0938C45.4365 46.0938 46.0938 45.4365 46.0938 44.6289V38.6719ZM37.3047 44.6289C37.3047 47.5903 34.8953 50 31.9336 50C28.9719 50 26.5625 47.5903 26.5625 44.6289V38.6719C26.5625 35.7101 28.9719 33.3008 31.9336 33.3008C33.4854 33.3008 34.9609 33.9718 35.9818 35.1418C36.6909 35.9543 36.6066 37.1883 35.7937 37.8975C34.9815 38.6066 33.7475 38.5227 33.0379 37.7098C32.7595 37.3901 32.3566 37.207 31.9336 37.207C31.1256 37.207 30.4688 37.8639 30.4688 38.6719V39.4623C30.9345 39.3299 31.4259 39.2578 31.9336 39.2578C34.8953 39.2578 37.3047 41.6672 37.3047 44.6289ZM33.3984 44.6289C33.3984 43.821 32.7412 43.1641 31.9336 43.1641C31.1256 43.1641 30.4688 43.821 30.4688 44.6289C30.4688 45.4365 31.1256 46.0938 31.9336 46.0938C32.7412 46.0938 33.3984 45.4365 33.3984 44.6289ZM48.0469 5.85938C46.9681 5.85938 46.0938 6.7337 46.0938 7.8125V11.5753C41.5489 4.44412 33.6159 0 25 0C18.3224 0 12.0441 2.60048 7.32231 7.32231C2.60048 12.0441 0 18.3224 0 25C0 31.0108 2.16446 36.8206 6.09474 41.3589C9.98459 45.8504 15.345 48.8167 21.1887 49.7108C21.2891 49.7261 21.3886 49.7337 21.4867 49.7337C22.435 49.7337 23.267 49.0417 23.415 48.0759C23.5783 47.0097 22.8462 46.0129 21.78 45.8496C11.5902 44.2902 3.90625 35.3268 3.90625 25C3.90625 13.369 13.369 3.90625 25 3.90625C32.5024 3.90625 39.3909 7.89986 43.1576 14.2578H39.6484C38.5696 14.2578 37.6953 15.1321 37.6953 16.2109C37.6953 17.2897 38.5696 18.1641 39.6484 18.1641H44.1406C47.3713 18.1641 50 15.5357 50 12.3047V7.8125C50 6.7337 49.1257 5.85938 48.0469 5.85938Z" fill="#EE7F7F"/>
</g>
</svg>
