<svg width="50" height="50" viewBox="0 0 50 50" fill="none" xmlns="http://www.w3.org/2000/svg">
<g>
  <path d="M48.0471 40.3317C46.9683 40.3317 46.094 41.2064 46.094 42.2848C46.094 44.439 44.3415 46.191 42.1877 46.191H7.81272C6.76635 46.191 5.7833 45.7829 5.04477 45.0413C4.41153 44.4054 4.02396 43.5906 3.92936 42.7113C4.53666 41.5234 5.85959 38.5578 5.85959 35.2539C5.85959 32.663 5.04363 30.1209 4.41001 28.5374L6.5615 27.1031L10.042 29.7722C10.7432 30.3101 11.7182 30.3101 12.4193 29.7722L15.8205 27.1641L19.2217 29.7722C19.9229 30.3101 20.8979 30.3101 21.599 29.7722L25.0002 27.1641L28.4014 29.7722C29.1026 30.3101 30.0776 30.3101 30.7787 29.7722L34.2043 27.1454L37.8077 29.7959C38.5077 30.3108 39.464 30.3013 40.1537 29.7726L43.611 27.121L45.6263 28.5229C45.0938 29.8897 44.4041 31.9805 44.2007 34.0641C44.0962 35.138 44.8817 36.0928 45.9551 36.1977C47.0293 36.3018 47.9838 35.5168 48.0887 34.4433C48.3569 31.6921 49.7893 28.7113 49.8026 28.6835C50.2245 27.8179 49.9525 26.7742 49.1621 26.2245L44.67 23.0995C44.5845 23.0396 44.4949 22.9881 44.4029 22.9435C44.2435 20.1206 43.4164 17.3649 41.9833 14.9178L40.4295 12.2658V3.99399C41.4168 3.89595 42.1873 3.06358 42.1873 2.05078C42.1873 0.971985 41.313 0.0976562 40.2342 0.0976562H28.7112C27.6324 0.0976562 26.758 0.971985 26.758 2.05078C26.758 3.09639 27.5805 3.94783 28.6135 3.99895V12.2326L27.0571 14.708C27.0518 14.7167 27.0468 14.7255 27.0415 14.7339C25.392 10.8498 21.8111 7.90024 17.3556 7.25785C17.6569 6.93817 17.9964 6.62766 18.3794 6.3324C19.2339 5.67398 19.393 4.44756 18.735 3.59307C18.0765 2.73857 16.8501 2.57988 15.9956 3.23792C14.6441 4.27895 13.6641 5.44968 12.9538 6.62346C12.7394 6.29578 12.5021 5.96772 12.2378 5.64156C9.01359 1.66092 4.50766 0.814057 1.62947 1.29852C0.849749 1.42975 0.226046 2.01798 0.0498071 2.78854C-0.126813 3.55911 0.178363 4.3602 0.823428 4.81758C1.85149 5.54695 2.03955 6.33049 2.33519 7.89261C2.5904 9.24149 2.90816 10.9203 4.21393 12.4821C4.42488 12.7346 4.64919 12.9719 4.88532 13.1947C4.01557 14.6511 3.44947 16.2773 3.22898 17.9779C2.95546 20.0871 3.21753 22.1832 3.98429 24.1264L0.869967 26.2024C0.039889 26.7559 -0.238203 27.8488 0.222994 28.7335C0.240542 28.7666 1.95334 32.0889 1.95334 35.2539C1.95334 38.3579 0.287463 41.2403 0.273348 41.2647C0.095965 41.5638 0.00174196 41.9045 0.000597546 42.2524C-0.00855774 44.3451 0.800158 46.3146 2.27683 47.7974C3.75388 49.281 5.71997 50.0973 7.81272 50.0973H42.1877C46.4953 50.0973 50.0002 46.5927 50.0002 42.2852C50.0002 41.2064 49.1255 40.3317 48.0471 40.3317ZM30.3645 16.787L32.2199 13.8348C32.4156 13.5235 32.5198 13.1634 32.5198 12.7953V4.00391H36.5233V12.7953C36.5233 13.1424 36.616 13.4831 36.7911 13.7825L38.6126 16.8923C39.8653 19.0308 40.5272 21.4714 40.5272 23.9498C40.5272 24.1417 40.5562 24.3263 40.6077 24.5014L38.9403 25.7797L35.3373 23.1293C34.6369 22.6143 33.681 22.6238 32.9913 23.1526L29.5901 25.761L28.1679 24.6708C28.2027 24.5255 28.2229 24.3744 28.2229 24.2184C28.2229 21.5859 28.9633 19.0159 30.3645 16.787ZM9.20241 8.10051C10.2438 9.38568 10.6726 10.6926 10.8404 11.6833C9.25811 11.5398 8.03931 10.9676 7.21076 9.97658C6.55692 9.19495 6.38755 8.29964 6.17316 7.16629C6.0797 6.67267 5.97976 6.14434 5.82908 5.60227C7.02384 6.07491 8.21784 6.88477 9.20241 8.10051ZM11.6621 15.625H11.7285C12.2904 15.6223 12.6929 15.6124 12.8428 15.6082C12.9221 15.6181 13.0022 15.625 13.0839 15.625C13.1441 15.625 13.2048 15.6223 13.2658 15.6166C14.34 15.5174 15.1301 14.5664 15.0313 13.4922C15.029 13.4712 14.9443 12.4302 15.2975 11.0386C15.7557 11.0241 16.2165 11.0466 16.675 11.1061C18.9387 11.3998 20.9521 12.5572 22.3448 14.365C23.7376 16.1732 24.343 18.4155 24.0496 20.6787C23.9081 21.7705 23.5651 22.8012 23.0345 23.7492L20.4104 25.761L17.0092 23.1529C16.3081 22.6151 15.3334 22.6151 14.6323 23.1529L11.2307 25.761L7.8295 23.1529C7.82149 23.1468 7.81272 23.1415 7.80471 23.1354C7.13675 21.6831 6.89414 20.0874 7.1028 18.4803C7.2573 17.2905 7.65746 16.1545 8.27277 15.1417C9.30503 15.4614 10.4395 15.625 11.6621 15.625Z" fill="#EE7F7F"/>
</g>
</svg>
