<svg width="50" height="50" viewBox="0 0 50 50" fill="none" xmlns="http://www.w3.org/2000/svg">
<g>
<path d="M49.9976 17.5251C49.9339 14.5462 48.7205 11.7458 46.5808 9.64012C44.4415 7.53441 41.6225 6.36559 38.6428 6.34804C38.1377 6.3446 37.6331 6.37512 37.1337 6.43806C34.4234 2.43416 29.8957 0 25.0003 0C20.1045 0 15.5769 2.43416 12.8669 6.43806C12.469 6.38771 12.0681 6.35834 11.6664 6.34995C8.61314 6.28738 5.70748 7.44591 3.48046 9.61456C1.25459 11.7817 0.0186247 14.6545 0.000695608 17.7036C-0.0302034 22.8325 3.39578 27.3037 8.20344 28.7277V44.1406C8.20344 47.3717 10.8318 50 14.0628 50H36.4261C39.6568 50 42.2855 47.3717 42.2855 44.1406C42.2855 43.0618 41.4108 42.1875 40.3323 42.1875C39.2535 42.1875 38.3792 43.0618 38.3792 44.1406C38.3792 45.2175 37.503 46.0938 36.4261 46.0938H14.0628C12.9859 46.0938 12.1097 45.2175 12.1097 44.1406V36.2305H32.4222C33.501 36.2305 34.3753 35.3561 34.3753 34.2773C34.3753 33.1985 33.501 32.3242 32.4222 32.3242H12.1097V27.1561C12.1097 26.1806 11.3895 25.3548 10.4228 25.2213C6.68557 24.7066 3.88406 21.4848 3.90656 17.7269C3.91877 15.7322 4.73474 13.8451 6.2053 12.4134C7.67701 10.9802 9.58932 10.215 11.5852 10.2554C12.178 10.2676 12.767 10.3497 13.3365 10.4988C14.2066 10.7262 15.1195 10.3302 15.5483 9.53941C17.4308 6.06499 21.0525 3.90625 25.0003 3.90625C28.2024 3.90625 31.19 5.32684 33.2092 7.7179C29.6073 9.62982 27.1488 13.4193 27.1488 17.7734C27.1488 18.8522 28.0231 19.7266 29.1019 19.7266C30.1807 19.7266 31.055 18.8522 31.055 17.7734C31.055 13.6539 34.4062 10.3027 38.5257 10.3027C38.66 10.3027 38.7908 10.289 38.9175 10.2634C42.8176 10.4431 46.0086 13.6768 46.0922 17.6083C46.1711 21.3055 43.597 24.4827 39.9719 25.1633C39.0483 25.3365 38.3792 26.1429 38.3792 27.0824V34.2773C38.3792 35.3561 39.2535 36.2305 40.3323 36.2305C41.4108 36.2305 42.2855 35.3561 42.2855 34.2773V28.5812C44.2745 27.8973 46.0548 26.6674 47.4067 25.0217C49.1355 22.9176 50.0556 20.2549 49.9976 17.5251Z" fill="#EE7F7F"/>
</g>
</svg>
