<svg width="19" height="18" viewBox="0 0 19 18" fill="none" xmlns="http://www.w3.org/2000/svg">
<path fill-rule="evenodd" clip-rule="evenodd" d="M15.6953 13.5C16.9336 13.5 17.9375 14.5074 17.9375 15.75C17.9375 16.9926 16.9336 18 15.6953 18C14.457 18 13.4531 16.9926 13.4531 15.75C13.4531 14.5074 14.457 13.5 15.6953 13.5ZM5.97916 13.5C7.21749 13.5 8.22135 14.5074 8.22135 15.75C8.22135 16.9926 7.21749 18 5.97916 18C4.74084 18 3.73698 16.9926 3.73698 15.75C3.73698 14.5074 4.74084 13.5 5.97916 13.5ZM5.97916 15C5.56639 15 5.23177 15.3358 5.23177 15.75C5.23177 16.1642 5.56639 16.5 5.97916 16.5C6.39194 16.5 6.72656 16.1642 6.72656 15.75C6.72656 15.3358 6.39194 15 5.97916 15ZM15.6953 15C15.2825 15 14.9479 15.3358 14.9479 15.75C14.9479 16.1642 15.2825 16.5 15.6953 16.5C16.1081 16.5 16.4427 16.1642 16.4427 15.75C16.4427 15.3358 16.1081 15 15.6953 15ZM2.67175 0C4.03111 0 5.21235 0.918875 5.55983 2.22475L5.59497 2.37141L5.88873 3.75H15.511C15.5837 3.75 15.6563 3.75532 15.7281 3.76591L15.8352 3.78572C16.6045 3.95726 17.1025 4.69514 16.9904 5.46522L16.9702 5.57539L15.9376 10.2381C15.7196 11.2228 14.8776 11.9357 13.8851 11.9959L13.7488 12H7.93497C6.92366 12 6.0438 11.3219 5.77533 10.355L5.74256 10.2214L4.13336 2.6857C3.99436 2.03478 3.44666 1.55881 2.79507 1.50507L2.67175 1.5H0V0H2.67175ZM15.511 5.25H6.20936L7.20417 9.90714C7.27186 10.2241 7.53339 10.4581 7.84797 10.4949L7.93497 10.5H13.7488C14.0699 10.5 14.3516 10.2948 14.4548 9.99633L14.4784 9.91269L15.511 5.25Z" fill="white"/>
</svg>
