<svg width="34" height="34" viewBox="0 0 34 34" fill="none" xmlns="http://www.w3.org/2000/svg">
<circle cx="17" cy="17" r="17" fill="#EE7F7F"/>
<path fill-rule="evenodd" clip-rule="evenodd" d="M23.6953 21.5C24.9336 21.5 25.9375 22.5074 25.9375 23.75C25.9375 24.9926 24.9336 26 23.6953 26C22.457 26 21.4531 24.9926 21.4531 23.75C21.4531 22.5074 22.457 21.5 23.6953 21.5ZM13.9792 21.5C15.2175 21.5 16.2213 22.5074 16.2213 23.75C16.2213 24.9926 15.2175 26 13.9792 26C12.7408 26 11.737 24.9926 11.737 23.75C11.737 22.5074 12.7408 21.5 13.9792 21.5ZM13.9792 23C13.5664 23 13.2318 23.3358 13.2318 23.75C13.2318 24.1642 13.5664 24.5 13.9792 24.5C14.3919 24.5 14.7266 24.1642 14.7266 23.75C14.7266 23.3358 14.3919 23 13.9792 23ZM23.6953 23C23.2825 23 22.9479 23.3358 22.9479 23.75C22.9479 24.1642 23.2825 24.5 23.6953 24.5C24.1081 24.5 24.4427 24.1642 24.4427 23.75C24.4427 23.3358 24.1081 23 23.6953 23ZM10.6718 8C12.0311 8 13.2123 8.91887 13.5598 10.2247L13.595 10.3714L13.8887 11.75H23.511C23.5837 11.75 23.6563 11.7553 23.7281 11.7659L23.8352 11.7857C24.6045 11.9573 25.1025 12.6951 24.9904 13.4652L24.9702 13.5754L23.9376 18.2381C23.7196 19.2228 22.8776 19.9357 21.8851 19.9959L21.7488 20H15.935C14.9237 20 14.0438 19.3219 13.7753 18.355L13.7426 18.2214L12.1334 10.6857C11.9944 10.0348 11.4467 9.55881 10.7951 9.50507L10.6718 9.5H8V8H10.6718ZM23.511 13.25H14.2094L15.2042 17.9071C15.2719 18.2241 15.5334 18.4581 15.848 18.4949L15.935 18.5H21.7488C22.0699 18.5 22.3516 18.2948 22.4548 17.9963L22.4784 17.9127L23.511 13.25Z" fill="white"/>
</svg>
