<svg width="30" height="30" viewBox="0 0 30 30" fill="none" xmlns="http://www.w3.org/2000/svg">
<g clip-path="url(#clip0_513_61)">
<path d="M23.7843 10.643C21.2408 7.83369 19.7292 5.36067 18.9089 3.7807C18.0205 2.06937 17.7294 1.00818 17.7272 0.99973L17.4628 0L16.5183 0.421251C16.408 0.470454 13.7986 1.66043 12.3365 4.58456C11.6026 6.05251 11.4558 7.6869 11.4619 8.79941C11.4655 9.44686 11.0068 10.009 10.3712 10.1361C9.92565 10.2251 9.46727 10.0866 9.14566 9.76501L7.38647 8.00582L6.78131 8.84028C6.7185 8.9269 5.23958 10.9665 4.97033 11.3741C3.65556 13.3643 2.96999 15.6828 2.98776 18.0787C3.01157 21.2787 4.26999 24.2767 6.53118 26.5206C8.79226 28.7643 11.7999 30 15.0001 30C21.6238 29.9999 27.0125 24.6112 27.0125 17.9875C27.0126 15.5859 25.8359 12.9089 23.7843 10.643ZM15.0001 28.2406C12.2673 28.2406 9.6998 27.1863 7.77054 25.2718C5.84122 23.3572 4.76754 20.798 4.74719 18.0656C4.73194 16.0202 5.31675 14.0416 6.43835 12.3439C6.57529 12.1366 7.12462 11.3703 7.60147 10.7089L7.90167 11.0091C8.64014 11.7476 9.69212 12.0662 10.7164 11.8614C12.176 11.5694 13.2295 10.2777 13.2213 8.78979C13.2162 7.869 13.3317 6.52854 13.9102 5.37134C14.6144 3.96297 15.6672 3.04253 16.3987 2.53067C17.0603 4.21356 18.7375 7.69036 22.4802 11.8239C23.3139 12.7448 25.2532 15.1888 25.2532 17.9875C25.2532 23.6411 20.6537 28.2406 15.0001 28.2406Z" fill="white"/>
<path d="M16.783 14.9258L11.2668 23.0038H13.2171L18.7333 14.9258H16.783Z" fill="white"/>
<path d="M17.9601 18.6182C16.7369 18.6182 15.8136 19.4375 15.8136 20.8685C15.8136 22.311 16.7368 23.1188 17.9601 23.1188C19.1834 23.1188 20.1066 22.311 20.1066 20.8685C20.1066 19.4375 19.1833 18.6182 17.9601 18.6182ZM17.9601 21.8725C17.7062 21.8725 17.4523 21.6416 17.4523 20.8685C17.4523 20.0953 17.7062 19.8644 17.9601 19.8644C18.214 19.8644 18.4678 20.0953 18.4678 20.8685C18.4678 21.6416 18.214 21.8725 17.9601 21.8725Z" fill="white"/>
<path d="M14.1865 17.0608C14.1865 15.6299 13.2633 14.8105 12.04 14.8105C10.8167 14.8105 9.89349 15.6299 9.89349 17.0608C9.89349 18.5033 10.8167 19.3112 12.04 19.3112C13.2633 19.3112 14.1865 18.5033 14.1865 17.0608ZM11.5322 17.0608C11.5322 16.2877 11.7861 16.0568 12.04 16.0568C12.2939 16.0568 12.5477 16.2877 12.5477 17.0608C12.5477 17.834 12.2939 18.0648 12.04 18.0648C11.7861 18.0648 11.5322 17.834 11.5322 17.0608Z" fill="white"/>
</g>
<defs>
<clipPath id="clip0_513_61">
<rect width="30" height="30" fill="white"/>
</clipPath>
</defs>
</svg>
