<svg width="18" height="27" viewBox="0 0 18 27" fill="none" xmlns="http://www.w3.org/2000/svg">
<g clip-path="url(#clip0_22_1141)">
<path d="M8.99768 7.5C8.40434 7.5 7.82432 7.67595 7.33097 8.00559C6.83762 8.33524 6.45311 8.80377 6.22604 9.35195C5.99898 9.90013 5.93957 10.5033 6.05533 11.0853C6.17108 11.6672 6.4568 12.2018 6.87636 12.6213C7.29592 13.0409 7.83047 13.3266 8.41241 13.4424C8.99435 13.5581 9.59755 13.4987 10.1457 13.2716C10.6939 13.0446 11.1624 12.6601 11.4921 12.1667C11.8217 11.6734 11.9977 11.0933 11.9977 10.5C11.9977 9.70435 11.6816 8.94129 11.119 8.37868C10.5564 7.81607 9.79333 7.5 8.99768 7.5ZM8.99768 12C8.70101 12 8.411 11.912 8.16433 11.7472C7.91765 11.5824 7.72539 11.3481 7.61186 11.074C7.49833 10.7999 7.46863 10.4983 7.5265 10.2074C7.58438 9.91639 7.72724 9.64912 7.93702 9.43934C8.1468 9.22956 8.41408 9.0867 8.70505 9.02882C8.99602 8.97094 9.29762 9.00065 9.57171 9.11418C9.8458 9.22771 10.0801 9.41997 10.2449 9.66665C10.4097 9.91332 10.4977 10.2033 10.4977 10.5C10.4977 10.8978 10.3396 11.2794 10.0583 11.5607C9.77704 11.842 9.39551 12 8.99768 12Z" fill="#EE7F7F"/>
<path d="M8.9967 20.9995C8.36515 21.0028 7.74203 20.8547 7.17949 20.5676C6.61696 20.2805 6.13139 19.8628 5.76344 19.3496C2.90519 15.4068 1.45544 12.4428 1.45544 10.5393C1.45544 8.53923 2.24997 6.62109 3.66423 5.20683C5.07848 3.79257 6.99663 2.99805 8.9967 2.99805C10.9968 2.99805 12.9149 3.79257 14.3292 5.20683C15.7434 6.62109 16.5379 8.53923 16.5379 10.5393C16.5379 12.4428 15.0882 15.4068 12.2299 19.3496C11.862 19.8628 11.3764 20.2805 10.8139 20.5676C10.2514 20.8547 9.62824 21.0028 8.9967 20.9995ZM8.9967 4.6353C7.43101 4.63708 5.92996 5.25984 4.82285 6.36695C3.71574 7.47406 3.09298 8.97511 3.09119 10.5408C3.09119 12.0483 4.51094 14.836 7.08794 18.3903C7.30672 18.6916 7.59372 18.9369 7.92548 19.106C8.25724 19.2751 8.62432 19.3633 8.9967 19.3633C9.36907 19.3633 9.73615 19.2751 10.0679 19.106C10.3997 18.9369 10.6867 18.6916 10.9054 18.3903C13.4824 14.836 14.9022 12.0483 14.9022 10.5408C14.9004 8.97511 14.2777 7.47406 13.1705 6.36695C12.0634 5.25984 10.5624 4.63708 8.9967 4.6353Z" fill="#EE7F7F"/>
</g>
<defs>
<clipPath id="clip0_22_1141">
<rect width="18" height="18" fill="white" transform="translate(0 3)"/>
</clipPath>
</defs>
</svg>
