<svg width="28" height="28" viewBox="0 0 28 28" fill="none" xmlns="http://www.w3.org/2000/svg">
<g clip-path="url(#clip0_22_1224)">
<path d="M28 13.1212C27.8313 10.3912 26.8674 7.77028 25.2271 5.58151C23.5868 3.39274 21.3418 1.73182 18.769 0.803509C16.1962 -0.124805 13.4079 -0.27993 10.748 0.357259C8.08806 0.994448 5.67274 2.3961 3.79978 4.3894C1.92683 6.38271 0.678119 8.88054 0.207603 11.5749C-0.262912 14.2694 0.0653338 17.0426 1.15187 19.5527C2.23841 22.0628 4.03575 24.2001 6.3223 25.7011C8.60885 27.202 11.2847 28.0011 14.0198 27.9997H22.1667C23.7133 27.9981 25.1961 27.3831 26.2898 26.2894C27.3834 25.1958 27.9985 23.713 28 22.1663V13.1212ZM25.6667 22.1663C25.6667 23.0946 25.2979 23.9848 24.6415 24.6412C23.9852 25.2976 23.0949 25.6663 22.1667 25.6663H14.0198C12.3736 25.6656 10.746 25.3179 9.24315 24.6459C7.74031 23.9739 6.39599 22.9926 5.29784 21.7662C4.19437 20.5403 3.36576 19.0927 2.86755 17.5204C2.36934 15.9481 2.21305 14.2875 2.40917 12.6498C2.71885 10.0668 3.87939 7.66023 5.70785 5.80959C7.53631 3.95895 9.92869 2.76948 12.5078 2.42868C13.0109 2.36562 13.5175 2.33367 14.0245 2.33301C16.7434 2.3256 19.3781 3.27557 21.4667 5.01635C22.6865 6.03012 23.6877 7.28103 24.4096 8.69325C25.1316 10.1055 25.5592 11.6496 25.6667 13.232V22.1663Z" fill="#FAFAFA"/>
<path d="M9.33332 10.5003H14C14.3094 10.5003 14.6062 10.3774 14.8249 10.1586C15.0437 9.93982 15.1667 9.64308 15.1667 9.33366C15.1667 9.02424 15.0437 8.72749 14.8249 8.5087C14.6062 8.28991 14.3094 8.16699 14 8.16699H9.33332C9.0239 8.16699 8.72716 8.28991 8.50837 8.5087C8.28957 8.72749 8.16666 9.02424 8.16666 9.33366C8.16666 9.64308 8.28957 9.93982 8.50837 10.1586C8.72716 10.3774 9.0239 10.5003 9.33332 10.5003Z" fill="#FAFAFA"/>
<path d="M18.6667 12.833H9.33332C9.0239 12.833 8.72716 12.9559 8.50837 13.1747C8.28957 13.3935 8.16666 13.6903 8.16666 13.9997C8.16666 14.3091 8.28957 14.6058 8.50837 14.8246C8.72716 15.0434 9.0239 15.1663 9.33332 15.1663H18.6667C18.9761 15.1663 19.2728 15.0434 19.4916 14.8246C19.7104 14.6058 19.8333 14.3091 19.8333 13.9997C19.8333 13.6903 19.7104 13.3935 19.4916 13.1747C19.2728 12.9559 18.9761 12.833 18.6667 12.833Z" fill="#FAFAFA"/>
<path d="M18.6667 17.5H9.33332C9.0239 17.5 8.72716 17.6229 8.50837 17.8417C8.28957 18.0605 8.16666 18.3572 8.16666 18.6667C8.16666 18.9761 8.28957 19.2728 8.50837 19.4916C8.72716 19.7104 9.0239 19.8333 9.33332 19.8333H18.6667C18.9761 19.8333 19.2728 19.7104 19.4916 19.4916C19.7104 19.2728 19.8333 18.9761 19.8333 18.6667C19.8333 18.3572 19.7104 18.0605 19.4916 17.8417C19.2728 17.6229 18.9761 17.5 18.6667 17.5Z" fill="#FAFAFA"/>
</g>
<defs>
<clipPath id="clip0_22_1224">
<rect width="28" height="28" fill="white"/>
</clipPath>
</defs>
</svg>
