<svg width="32" height="32" viewBox="0 0 32 32" fill="none" xmlns="http://www.w3.org/2000/svg">
<path fill-rule="evenodd" clip-rule="evenodd" d="M8.81791 2.66602C5.41923 2.66602 2.66406 5.42118 2.66406 8.81986V23.1788C2.66406 26.5775 5.41923 29.3327 8.8179 29.3327H23.1769C26.5756 29.3327 29.3307 26.5775 29.3307 23.1788V8.81986C29.3307 5.42119 26.5756 2.66602 23.1769 2.66602H8.81791ZM23.9974 9.33268C24.7338 9.33268 25.3307 8.73573 25.3307 7.99935C25.3307 7.26297 24.7338 6.66602 23.9974 6.66602C23.261 6.66602 22.6641 7.26297 22.6641 7.99935C22.6641 8.73573 23.261 9.33268 23.9974 9.33268ZM22.6641 15.9993C22.6641 19.6812 19.6793 22.666 15.9974 22.666C12.3155 22.666 9.33073 19.6812 9.33073 15.9993C9.33073 12.3174 12.3155 9.33268 15.9974 9.33268C19.6793 9.33268 22.6641 12.3174 22.6641 15.9993ZM15.9974 19.9993C18.2065 19.9993 19.9974 18.2085 19.9974 15.9993C19.9974 13.7902 18.2065 11.9993 15.9974 11.9993C13.7883 11.9993 11.9974 13.7902 11.9974 15.9993C11.9974 18.2085 13.7883 19.9993 15.9974 19.9993Z" fill="#093753"/>
</svg>
