<svg width="18" height="30" viewBox="0 0 18 30" fill="none" xmlns="http://www.w3.org/2000/svg">
<g clip-path="url(#clip0_22_1164)">
<path d="M9.74883 4.75022C9.74883 4.55131 9.82785 4.36054 9.9685 4.21989C10.1092 4.07924 10.2999 4.00022 10.4988 4.00022C12.4873 4.0024 14.3937 4.79328 15.7997 6.19933C17.2058 7.60538 17.9966 9.51177 17.9988 11.5002C17.9988 11.6991 17.9198 11.8899 17.7792 12.0306C17.6385 12.1712 17.4477 12.2502 17.2488 12.2502C17.0499 12.2502 16.8591 12.1712 16.7185 12.0306C16.5778 11.8899 16.4988 11.6991 16.4988 11.5002C16.497 9.90947 15.8643 8.38438 14.7395 7.25955C13.6147 6.13472 12.0896 5.50201 10.4988 5.50022C10.2999 5.50022 10.1092 5.4212 9.9685 5.28055C9.82785 5.1399 9.74883 4.94913 9.74883 4.75022ZM10.4988 8.50022C11.2945 8.50022 12.0575 8.81629 12.6201 9.3789C13.1828 9.94151 13.4988 10.7046 13.4988 11.5002C13.4988 11.6991 13.5778 11.8899 13.7185 12.0306C13.8592 12.1712 14.0499 12.2502 14.2488 12.2502C14.4477 12.2502 14.6385 12.1712 14.7792 12.0306C14.9198 11.8899 14.9988 11.6991 14.9988 11.5002C14.9976 10.3071 14.5231 9.16321 13.6795 8.31956C12.8358 7.4759 11.6919 7.00141 10.4988 7.00022C10.2999 7.00022 10.1092 7.07924 9.9685 7.21989C9.82785 7.36054 9.74883 7.55131 9.74883 7.75022C9.74883 7.94913 9.82785 8.1399 9.9685 8.28055C10.1092 8.4212 10.2999 8.50022 10.4988 8.50022ZM17.3186 16.5545C17.7532 16.9903 17.9973 17.5807 17.9973 18.1962C17.9973 18.8117 17.7532 19.4021 17.3186 19.838L16.6361 20.6247C10.4936 26.5055 -4.45392 11.5617 1.33608 5.39972L2.19858 4.64972C2.63491 4.22723 3.22003 3.99351 3.82736 3.99912C4.43469 4.00474 5.01539 4.24923 5.44383 4.67972C5.46708 4.70297 6.85683 6.50822 6.85683 6.50822C7.2692 6.94144 7.49876 7.51692 7.49778 8.11502C7.4968 8.71313 7.26537 9.28785 6.85158 9.71972L5.98308 10.8117C6.46372 11.9796 7.17038 13.0409 8.06246 13.9348C8.95455 14.8287 10.0145 15.5375 11.1813 16.0205L12.2801 15.1467C12.712 14.7333 13.2866 14.5021 13.8846 14.5013C14.4825 14.5004 15.0577 14.73 15.4908 15.1422C15.4908 15.1422 17.2953 16.5312 17.3186 16.5545ZM16.2866 17.645C16.2866 17.645 14.4918 16.2642 14.4686 16.241C14.3141 16.0878 14.1053 16.0018 13.8877 16.0018C13.6701 16.0018 13.4613 16.0878 13.3068 16.241C13.2866 16.262 11.7738 17.4672 11.7738 17.4672C11.6719 17.5484 11.5506 17.6016 11.4218 17.6215C11.2931 17.6415 11.1613 17.6276 11.0396 17.5812C9.52792 17.0184 8.15488 16.1373 7.01346 14.9975C5.87203 13.8578 4.98888 12.486 4.42383 10.9752C4.37373 10.8518 4.35739 10.7173 4.37651 10.5855C4.39562 10.4537 4.44949 10.3293 4.53258 10.2252C4.53258 10.2252 5.73783 8.71172 5.75808 8.69222C5.91128 8.53771 5.99724 8.32893 5.99724 8.11135C5.99724 7.89376 5.91128 7.68498 5.75808 7.53047C5.73483 7.50797 4.35408 5.71172 4.35408 5.71172C4.19725 5.5711 3.99258 5.49579 3.78202 5.50123C3.57145 5.50667 3.37094 5.59244 3.22158 5.74097L2.35908 6.49097C-1.87242 11.579 11.0808 23.8137 15.5396 19.6002L16.2228 18.8127C16.3829 18.6644 16.4791 18.4597 16.491 18.2417C16.5029 18.0238 16.4296 17.8098 16.2866 17.645Z" fill="#EE7F7F"/>
</g>
<defs>
<clipPath id="clip0_22_1164">
<rect width="18" height="18" fill="white" transform="translate(0 4)"/>
</clipPath>
</defs>
</svg>
