<svg width="20" height="22" viewBox="0 0 20 22" fill="none" xmlns="http://www.w3.org/2000/svg">
<g clip-path="url(#clip0_301_736)">
<path fill-rule="evenodd" clip-rule="evenodd" d="M8.74999 2.25C12.662 2.25 15.8333 5.57988 15.8333 9.6875C15.8333 11.4257 15.2654 13.0246 14.3138 14.2909L18.9226 19.1313L17.7441 20.3687L13.1342 15.5295C11.9282 16.5287 10.4054 17.125 8.74999 17.125C4.83797 17.125 1.66666 13.7951 1.66666 9.6875C1.66666 5.57988 4.83797 2.25 8.74999 2.25ZM8.74999 4C5.75845 4 3.33332 6.54638 3.33332 9.6875C3.33332 12.8286 5.75845 15.375 8.74999 15.375C11.7415 15.375 14.1667 12.8286 14.1667 9.6875C14.1667 6.54638 11.7415 4 8.74999 4Z" fill="#EE7F7F"/>
</g>
<defs>
<clipPath id="clip0_301_736">
<rect width="20" height="21" fill="white" transform="translate(0 0.5)"/>
</clipPath>
</defs>
</svg>
