<svg width="32" height="20" viewBox="0 0 32 20" fill="none" xmlns="http://www.w3.org/2000/svg">
<path d="M30.7544 19.4519C30.0097 19.5601 26.3674 19.4519 26.1783 19.4519C25.2367 19.4644 24.3284 19.093 23.6502 18.4183C22.8822 17.6551 22.1956 16.8138 21.445 16.0146C21.223 15.772 20.9827 15.5479 20.7264 15.3446C20.1271 14.8668 19.5337 14.975 19.2515 15.7051C19.031 16.4941 18.8772 17.3014 18.7918 18.1179C18.7424 18.857 18.2885 19.3197 17.4856 19.3708C16.9881 19.3978 16.4906 19.4069 15.999 19.3948C14.2072 19.383 12.4436 18.933 10.8526 18.0818C9.13116 17.0911 7.63133 15.7365 6.45101 14.1066C4.51057 11.5467 2.95997 8.73433 1.57519 5.83484C1.50246 5.69062 0.0827765 2.57179 0.0478661 2.42456C-0.0801385 1.9318 0.0478668 1.46007 0.440608 1.29781C0.690799 1.19866 5.36879 1.29781 5.44733 1.29781C5.79511 1.2947 6.13482 1.406 6.41726 1.6156C6.6997 1.8252 6.91021 2.12221 7.0183 2.46362C7.88307 4.75052 9.06704 6.89449 10.5326 8.82747C10.7377 9.08595 10.9778 9.31262 11.2454 9.50052C11.6265 9.76793 11.9872 9.67479 12.1443 9.22108C12.3305 8.59158 12.4399 7.94056 12.4701 7.28308C12.4963 5.97906 12.4701 5.11973 12.4003 3.81872C12.3538 2.98343 12.0687 2.25029 10.8759 2.01593C10.5093 1.94982 10.4773 1.63734 10.713 1.32486C11.2046 0.675851 11.8767 0.573693 12.6301 0.534632C13.7531 0.46853 14.876 0.5136 15.999 0.534632H16.2434C16.7321 0.532791 17.2197 0.584155 17.698 0.68787C17.9807 0.746927 18.2374 0.898767 18.4298 1.12076C18.6222 1.34276 18.74 1.62302 18.7656 1.91978C18.8231 2.24882 18.8475 2.58311 18.8384 2.91732C18.8093 4.34153 18.7424 5.76273 18.7278 7.18693C18.7144 7.75084 18.7642 8.31445 18.8762 8.86653C19.0362 9.62371 19.5395 9.813 20.0399 9.26615C20.6878 8.55922 21.282 7.80181 21.8174 7.00065C22.764 5.5405 23.5449 3.9728 24.1447 2.32841C24.4706 1.4841 24.7266 1.29781 25.5993 1.29781H30.5624C30.8575 1.29247 31.1517 1.33298 31.4352 1.418C31.5355 1.44523 31.6293 1.49356 31.7107 1.55996C31.7921 1.62637 31.8594 1.70942 31.9082 1.80391C31.9571 1.8984 31.9866 2.00229 31.9948 2.10909C32.003 2.21589 31.9898 2.32329 31.9559 2.42456C31.7116 3.5483 31.1239 4.50678 30.5013 5.42921C29.4918 6.9075 28.4271 8.34673 27.3943 9.80098C27.2637 9.99385 27.1442 10.1945 27.0365 10.4019C26.6467 11.126 26.6757 11.5317 27.2401 12.1356C28.142 13.0911 29.1049 13.9895 29.9748 14.975C30.6134 15.6914 31.1898 16.4646 31.697 17.2856C32.3341 18.3041 31.9414 19.2777 30.7544 19.4519Z" fill="#093753"/>
</svg>
