<svg width="44" height="44" viewBox="0 0 44 44" fill="none" xmlns="http://www.w3.org/2000/svg">
<circle cx="22" cy="22" r="22" fill="#0077FF"/>
<g>
<path d="M21.2325 29.572H22.7263C22.7263 29.572 23.1779 29.522 23.4076 29.2735C23.6202 29.0454 23.6123 28.6172 23.6123 28.6172C23.6123 28.6172 23.5827 26.6124 24.514 26.3171C25.4312 26.0264 26.6094 28.2547 27.858 29.1126C28.8018 29.7611 29.519 29.6189 29.519 29.6189L32.8583 29.572C32.8583 29.572 34.6053 29.4642 33.7772 28.0906C33.71 27.9781 33.2943 27.0749 31.2942 25.2185C29.2003 23.2746 29.4815 23.5903 32.0036 20.2291C33.5396 18.1821 34.1538 16.932 33.9616 16.3976C33.7787 15.8882 32.649 16.0225 32.649 16.0225L28.8924 16.0444C28.8924 16.0444 28.6143 16.0069 28.4065 16.1304C28.2049 16.2522 28.0752 16.5335 28.0752 16.5335C28.0752 16.5335 27.4798 18.118 26.686 19.465C25.0125 22.3074 24.3421 22.4574 24.0686 22.2808C23.4326 21.8699 23.592 20.6276 23.592 19.7463C23.592 16.9914 24.0092 15.8428 22.7779 15.5459C22.3685 15.4475 22.0685 15.3819 21.0231 15.3709C19.6824 15.3569 18.5463 15.3756 17.9041 15.6897C17.476 15.8991 17.1462 16.3663 17.3478 16.3929C17.5963 16.4257 18.1588 16.5445 18.4573 16.9507C18.8432 17.4742 18.8292 18.6524 18.8292 18.6524C18.8292 18.6524 19.0511 21.8949 18.312 22.298C17.8041 22.5746 17.1087 22.0105 15.6164 19.4306C14.8523 18.1102 14.2742 16.6492 14.2742 16.6492C14.2742 16.6492 14.1632 16.3773 13.9648 16.2319C13.7241 16.0554 13.3866 15.9991 13.3866 15.9991L9.81445 16.021C9.81445 16.021 9.27847 16.0366 9.08158 16.2694C8.90657 16.4773 9.06752 16.9054 9.06752 16.9054C9.06752 16.9054 11.8646 23.4481 15.0305 26.7468C17.9354 29.7704 21.2325 29.572 21.2325 29.572Z" fill="white"/>
</g>
</svg>
